# xmcd CD database file
#
# Track frame offsets:
#	150
#	21287
#	37615
#	40247
#
# Disc length: 820 seconds
#
# Revision: 0
# Processed by: cddbd v1.5PL3 Copyright (c) Steve Scherf et al.
# Submitted via: CDex 1.50beta9
#
DISCID=23033204
DTITLE=さくらん - たとえばxxx
DYEAR=1900
DGENRE=Rock
TTITLE0=たとえばxxx
TTITLE1=白昼の足跡
TTITLE2=序曲
TTITLE3=ある春の晴れた日に
EXTD=
EXTT0=
EXTT1=
EXTT2=
EXTT3=
PLAYORDER=
